# xmcd
# 
# Track frame offsets:
#     150
#     19265
#     38455
#     73025
#     89452
#     141735
#     162232
# 
# Disc length: 2404
# 
# Revision: 1
# Processed by: cddbd v1.5.2PL0 Copyright (c) Steve Scherf et al.
# Submitted via: BonkEnc v1.0.8
# 
DISCID=5d096207
DTITLE=Deodato - First Cuckoo
DYEAR=1975
DGENRE=Fusion
TTITLE0=Funk Yourself
TTITLE1=Black Dog
TTITLE2=Crabwalk
TTITLE3=Adam's Hotel
TTITLE4=Caravan - Watusi Strut
TTITLE5=Speak Low
TTITLE6=First Cuckoo (On Hearing The First Cuckoo In Spring)
EXTD=YEAR: 1975
EXTT0=
EXTT1=
EXTT2=
EXTT3=
EXTT4=
EXTT5=
EXTT6=
PLAYORDER=
